<svg width="112" height="24" viewBox="0 0 112 24" fill="none" xmlns="http://www.w3.org/2000/svg">
<g filter="url(#filter0_d_607_1062)">
<path d="M24 4H17.5L4 20H10.5L24 4Z" fill="white"/>
<path d="M72 4H65.5L52 20H58.5L72 4Z" fill="white"/>
<path d="M96 4H89.5L76 20H82.5L96 4Z" fill="white"/>
<path d="M108 4H101.5L88 20H94.5L108 4Z" fill="white"/>
<path d="M84 4H77.5L64 20H70.5L84 4Z" fill="white"/>
<path d="M60 4H53.5L40 20H46.5L60 4Z" fill="white"/>
<path d="M48 4H41.5L28 20H34.5L48 4Z" fill="white"/>
<path d="M36 4H29.5L16 20H22.5L36 4Z" fill="white"/>
</g>
<defs>
<filter id="filter0_d_607_1062" x="0" y="0" width="112" height="24" filterUnits="userSpaceOnUse" color-interpolation-filters="sRGB">
<feFlood flood-opacity="0" result="BackgroundImageFix"/>
<feColorMatrix in="SourceAlpha" type="matrix" values="0 0 0 0 0 0 0 0 0 0 0 0 0 0 0 0 0 0 127 0" result="hardAlpha"/>
<feOffset/>
<feGaussianBlur stdDeviation="2"/>
<feComposite in2="hardAlpha" operator="out"/>
<feColorMatrix type="matrix" values="0 0 0 0 0.117647 0 0 0 0 0.756863 0 0 0 0 0.772549 0 0 0 1 0"/>
<feBlend mode="normal" in2="BackgroundImageFix" result="effect1_dropShadow_607_1062"/>
<feBlend mode="normal" in="SourceGraphic" in2="effect1_dropShadow_607_1062" result="shape"/>
</filter>
</defs>
</svg>
